<svg xmlns="http://www.w3.org/2000/svg" viewBox="0 0 1200 630" width="1200" height="630">
  <defs>
    <linearGradient id="bg" x1="0" y1="0" x2="1" y2="1">
      <stop offset="0%" stop-color="#0b1122" />
      <stop offset="100%" stop-color="#141c34" />
    </linearGradient>
    <radialGradient id="glow" cx="80%" cy="15%" r="60%">
      <stop offset="0%" stop-color="#e2a730" stop-opacity="0.35" />
      <stop offset="100%" stop-color="#e2a730" stop-opacity="0" />
    </radialGradient>
  </defs>
  <rect width="1200" height="630" fill="url(#bg)" />
  <rect width="1200" height="630" fill="url(#glow)" />

  <g stroke="#e6eaf3" stroke-opacity="0.08" stroke-width="1">
    <line x1="0" y1="105" x2="1200" y2="105" />
    <line x1="0" y1="210" x2="1200" y2="210" />
    <line x1="0" y1="315" x2="1200" y2="315" />
    <line x1="0" y1="420" x2="1200" y2="420" />
    <line x1="0" y1="525" x2="1200" y2="525" />
  </g>

  <g transform="translate(90,235)" stroke="#e2a730" stroke-width="3" stroke-linecap="round">
    <line x1="0" y1="0" x2="80" y2="80" />
    <line x1="160" y1="0" x2="80" y2="80" />
    <line x1="0" y1="160" x2="80" y2="80" />
    <line x1="160" y1="160" x2="80" y2="80" />
  </g>
  <g transform="translate(90,235)">
    <circle cx="80" cy="80" r="16" fill="#e2a730" />
    <circle cx="0" cy="0" r="8" fill="#f4f6fb" />
    <circle cx="160" cy="0" r="8" fill="#f4f6fb" />
    <circle cx="0" cy="160" r="8" fill="#f4f6fb" />
    <circle cx="160" cy="160" r="8" fill="#f4f6fb" />
  </g>

  <text x="400" y="300" font-family="'Space Grotesk', Arial, sans-serif" font-size="76" font-weight="700" fill="#f4f6fb">K&amp;E Nexus</text>
  <text x="402" y="352" font-family="Arial, sans-serif" font-size="28" fill="#eabd57" letter-spacing="1">GLOBAL SOLUTIONS &#183; STRATEGIC SOLUTIONS</text>
  <text x="402" y="410" font-family="Arial, sans-serif" font-size="24" fill="#c7d0e3">Custom software &amp; digital solutions for businesses of any size.</text>
</svg>
